<?xml version="1.0" encoding="UTF-8"?>
<svg width="32px" height="32px" viewBox="0 0 32 32" version="1.1" xmlns="http://www.w3.org/2000/svg" xmlns:xlink="http://www.w3.org/1999/xlink">
    <!-- Generator: Sketch 45.1 (43504) - http://www.bohemiancoding.com/sketch -->
    <title>gh-logo</title>
    <desc>Created with Sketch.</desc>
    <defs></defs>
    <g id="Welcome" stroke="none" stroke-width="1" fill="none" fill-rule="evenodd" opacity="0.331759523">
        <g id="eslint-plugin-home" transform="translate(-704.000000, -1807.000000)" fill="#000000">
            <g id="footer" transform="translate(599.000000, 1504.000000)">
                <path d="M121,303.784574 C112.2,303.784574 105,310.984574 105,319.784574 C105,326.884574 109.6,332.884574 115.9,334.984574 C116.7,335.084574 117,334.684574 117,334.184574 C117,333.784574 117,332.784574 117,331.484574 C112.5,332.484574 111.6,329.384574 111.6,329.384574 C110.9,327.584574 109.8,327.084574 109.8,327.084574 C108.3,326.084574 109.9,326.084574 109.9,326.084574 C111.5,326.184574 112.4,327.684574 112.4,327.684574 C113.8,330.084574 116.1,329.384574 117.1,328.984574 C117.2,327.984574 117.7,327.284574 118.1,326.884574 C114.5,326.484574 110.799999,325.084574 110.799999,318.984574 C110.799999,317.284574 111.399999,315.784574 112.399999,314.684574 C112.199999,314.284574 111.699999,312.684574 112.599999,310.484574 C112.599999,310.484574 113.899999,310.084574 117,312.084574 C118.3,311.684574 119.6,311.584574 121,311.584574 C122.4,311.584574 123.7,311.784574 125,312.084574 C128.1,309.984574 129.4,310.384574 129.4,310.384574 C130.3,312.584574 129.7,314.184574 129.6,314.584574 C130.6,315.684574 131.2,317.084574 131.2,318.884574 C131.2,324.984574 127.5,326.384574 123.9,326.784574 C124.5,327.284574 125,328.284574 125,329.784574 C125,331.884574 125,333.684574 125,334.184574 C125,334.584574 125.3,335.084574 126.1,334.984574 C132.4,332.884574 137,326.884574 137,319.784574 C137,310.984574 129.8,303.784574 121,303.784574 Z" id="gh-logo"></path>
            </g>
        </g>
    </g>
</svg>